<svg width="66" height="56" viewBox="0 0 66 56" fill="none" xmlns="http://www.w3.org/2000/svg">
<path d="M65.8333 38C65.8333 47.9411 57.7744 56 47.8333 56L20.8333 56C18.0719 56 15.8333 53.7614 15.8333 51L15.8333 17C15.8333 11.4772 20.3105 7 25.8333 7L60.8333 7C63.5947 7 65.8333 9.23858 65.8333 12L65.8333 38Z" fill="#0077FF"/>
<path d="M24.8233 10C21.2521 10 18.3447 12.9339 18.3447 16.5203C18.3447 18.7892 19.5098 20.7925 21.2691 21.9602C19.1442 22.6706 17.3056 23.9985 15.9571 25.7357C15.2115 25.1622 14.3784 24.701 13.4804 24.3705C14.8422 23.3595 15.7322 21.7353 15.7322 19.91C15.7322 16.8682 13.2721 14.3782 10.2488 14.3782C7.22547 14.3782 4.76539 16.8682 4.76539 19.91C4.76539 21.7364 5.65609 23.3613 7.0191 24.3723C3.41052 25.7039 0.833313 29.1903 0.833313 33.2933V36.1754C0.833682 36.3951 0.92157 36.6056 1.0774 36.7604C1.23323 36.9155 1.44409 37.0019 1.66381 37.0011H14.3088C14.3394 37.0045 14.3701 37.0063 14.4007 37.0059H35.2466C35.2772 37.0063 35.3082 37.0045 35.3385 37.0011H47.9844C48.439 36.9993 48.8072 36.6304 48.8083 36.1754V33.2933C48.8083 29.1903 46.2355 25.7039 42.6288 24.3719C43.9918 23.3613 44.8825 21.736 44.8825 19.9096C44.8825 16.8679 42.4225 14.3778 39.3992 14.3778C36.3759 14.3778 33.9158 16.8679 33.9158 19.9096C33.9158 21.735 34.8061 23.3594 36.168 24.3701C35.268 24.7014 34.4346 25.1641 33.6879 25.739C32.3401 24.0008 30.504 22.6711 28.3792 21.9602C30.1381 20.7925 31.3036 18.7892 31.3036 16.5203C31.3036 12.9339 28.3947 10 24.8235 10H24.8233ZM24.8233 11.6544C27.4943 11.6544 29.6475 13.822 29.6475 16.5203C29.6475 19.1976 27.5278 21.3442 24.8864 21.3786C24.8654 21.3786 24.8447 21.3756 24.8233 21.3756C24.8019 21.3756 24.7816 21.3786 24.7602 21.3786C22.1188 21.3446 20.0005 19.1977 20.0005 16.5203C20.0005 13.8217 22.1519 11.6544 24.8229 11.6544H24.8233ZM10.2489 16.0324C12.3682 16.0324 14.0779 17.7525 14.0779 19.9099C14.0779 22.0528 12.3903 23.7655 10.2909 23.7887C10.2769 23.7887 10.2632 23.7873 10.2488 23.7873C10.2348 23.7873 10.2212 23.7887 10.2067 23.7887C8.10742 23.7655 6.41978 22.0524 6.41978 19.9099C6.41978 17.7526 8.12954 16.0324 10.2488 16.0324H10.2489ZM39.3987 16.0324C41.5179 16.0324 43.2277 17.7525 43.2277 19.9099C43.2277 22.0528 41.5401 23.7655 39.4407 23.7887C39.4267 23.7887 39.413 23.7873 39.3986 23.7873C39.3846 23.7873 39.3709 23.7887 39.3565 23.7887C37.2572 23.7655 35.5696 22.0524 35.5696 19.9099C35.5696 17.7526 37.2793 16.0324 39.3986 16.0324H39.3987ZM24.76 23.0328C24.781 23.0332 24.8017 23.0358 24.8231 23.0358C24.8442 23.0358 24.8648 23.0328 24.8862 23.0328C30.1835 23.0668 34.4229 27.3427 34.4229 32.6952L34.4225 35.3511H15.2244V32.6952C15.2244 27.3422 19.4626 23.0669 24.7592 23.0328H24.76ZM10.1855 25.445C10.2066 25.4454 10.2273 25.4479 10.2487 25.4479C10.2701 25.4479 10.2904 25.445 10.3118 25.445C12.1035 25.4594 13.7387 26.0772 15.0407 27.1108C14.1091 28.7593 13.5703 30.6621 13.5703 32.6957V35.3452H2.487V33.2932C2.487 28.9431 5.90727 25.4789 10.1853 25.4446L10.1855 25.445ZM39.3353 25.445C39.3567 25.4454 39.377 25.4479 39.3985 25.4479C39.4199 25.4479 39.4402 25.445 39.4616 25.445C43.7397 25.479 47.16 28.9435 47.16 33.2935V35.3452H36.071L36.0707 32.6957C36.0707 30.6632 35.5334 28.7618 34.6035 27.1137C35.9059 26.0787 37.5422 25.4594 39.3354 25.445H39.3353Z" fill="#222222"/>
</svg>
